<svg xmlns="http://www.w3.org/2000/svg" xmlns:xlink="http://www.w3.org/1999/xlink" id="Layer_1" data-name="Layer 1" viewBox="0 0 251.34 63.36"><defs><style>      .cls-1 {        fill: #00a651;      }      .cls-1, .cls-2, .cls-3, .cls-4, .cls-5, .cls-6, .cls-7 {        stroke-width: 0px;      }      .cls-2 {        fill: #e56020;      }      .cls-3 {        fill: #ffd100;      }      .cls-4 {        fill: #0098d2;      }      .cls-5 {        fill: #7c868d;      }      .cls-8, .cls-6, .cls-7 {        isolation: isolate;      }      .cls-6 {        fill: url(#linear-gradient);      }      .cls-6, .cls-7 {        mix-blend-mode: multiply;      }      .cls-7 {        fill: url(#linear-gradient-2);      }    </style><linearGradient id="linear-gradient" x1="23.47" y1="16.88" x2="23.47" y2="63.4" gradientTransform="translate(0 65.34) scale(1 -1)" gradientUnits="userSpaceOnUse"><stop offset="0" stop-color="#fff"></stop><stop offset="1" stop-color="#bfbfbf"></stop></linearGradient><linearGradient id="linear-gradient-2" x1="58.94" y1="16.88" x2="58.94" y2="63.4" gradientTransform="translate(0 65.34) scale(1 -1)" gradientUnits="userSpaceOnUse"><stop offset="0" stop-color="#fff"></stop><stop offset="1" stop-color="#d1d3d4"></stop></linearGradient></defs><g class="cls-8"><g id="MIE-F1"><g><path class="cls-5" d="M107.14,30.15h1.53l2.7,9.53c.2.74.38,1.01.77,1.01s.58-.27.77-1.01l2.7-9.53h1.53l1.75,12.57h-1.24l-1.22-8.79c-.07-.56-.16-1.4-.2-2.07-.16.69-.36,1.51-.52,2.09l-1.62,5.92c-.32,1.21-.85,1.94-1.94,1.94s-1.62-.74-1.94-1.94l-1.64-5.96c-.14-.56-.38-1.44-.52-2.11-.05.72-.13,1.64-.22,2.23l-1.21,8.68h-1.24l1.76-12.57h0Z"></path><path class="cls-5" d="M120.76,36.96c0-1.94,1.33-3.69,3.6-3.69s3.6,1.82,3.6,3.69v1.01c0,.2-.16.36-.34.36h-5.64v.95c0,1.13.59,2.58,2.49,2.58.97,0,1.85-.22,2.81-.49l.27,1.04c-1.04.32-2.02.54-3.08.54-2.43,0-3.71-1.78-3.71-3.67v-2.32ZM126.74,37.36v-.45c0-1.17-.65-2.54-2.38-2.54s-2.38,1.35-2.38,2.54v.45h4.76Z"></path><path class="cls-5" d="M129.74,36.94c0-2.3,1.26-3.67,3.35-3.67.95,0,1.76.41,2.66,1.1v-4.21h1.22v12.57h-.97l-.13-.95c-.94.74-1.8,1.19-2.79,1.19-2.09,0-3.35-1.39-3.35-3.67v-2.36ZM130.99,39c0,1.91.68,2.86,2.25,2.86.94,0,1.8-.58,2.52-1.13v-5.19c-.79-.63-1.62-1.17-2.52-1.17-1.57,0-2.25.94-2.25,2.86v1.76h0Z"></path><path class="cls-5" d="M139.51,30.91c0-.45.34-.77.79-.77s.83.32.83.77-.36.83-.83.83-.79-.38-.79-.83ZM139.69,33.5h1.22v8.86c0,.22-.13.36-.36.36h-.86v-9.22h0Z"></path><path class="cls-5" d="M143.25,37.32c0-2.45,1.3-4.05,3.67-4.05.97,0,1.89.18,2.84.47l-.29,1.04c-.79-.25-1.64-.41-2.52-.41-1.85,0-2.47,1.28-2.47,3.08v1.28c0,1.84.61,3.13,2.47,3.13.92,0,1.67-.16,2.52-.43l.29,1.06c-.95.29-1.87.47-2.84.47-2.38,0-3.67-1.64-3.67-4.09v-1.55h0Z"></path><path class="cls-5" d="M156.94,41.79c-.76.68-1.73,1.17-2.83,1.17-1.84,0-2.93-1.1-2.93-2.68,0-1.91,1.6-2.66,3.94-2.66h1.69v-.88c0-1.57-.58-2.36-2.21-2.36-.88,0-1.64.16-2.5.43l-.27-1.06c.94-.29,1.8-.47,2.77-.47,2.34,0,3.44,1.33,3.44,3.22v6.23h-.95l-.14-.94h-.01ZM156.81,38.62h-1.62c-1.66,0-2.75.38-2.75,1.66,0,.94.58,1.58,1.8,1.58.94,0,1.87-.43,2.58-1.1v-2.14h0Z"></path><path class="cls-5" d="M160.43,30.15h1.22v10.95c0,.58.2.7.54.77l-.25,1.04c-.79-.07-1.51-.34-1.51-1.69v-11.07Z"></path><path class="cls-5" d="M169.15,30.15h1.24v12.21c0,.22-.13.36-.36.36h-.88v-12.57h0Z"></path><path class="cls-5" d="M173.24,33.5h.97l.14.97c.92-.74,1.84-1.21,2.85-1.21,2.03,0,3.04,1.24,3.04,3.1v6c0,.22-.14.36-.36.36h-.86v-6.05c0-1.48-.47-2.3-1.98-2.3-.94,0-1.71.5-2.58,1.15v7.2h-1.22v-9.22h0Z"></path><path class="cls-5" d="M183.35,34.48l-1.51-.11v-.86h1.51v-1.37c0-1.69,1.1-2.72,2.72-2.72.49,0,.95.05,1.42.18l-.18,1.06c-.4-.09-.81-.14-1.22-.14-.83,0-1.51.41-1.51,1.75v1.24h2.18v.97h-2.18v7.89c0,.22-.14.36-.36.36h-.86v-8.25h-.01Z"></path><path class="cls-5" d="M187.79,37.29c0-2.49,1.4-4.02,3.76-4.02s3.75,1.53,3.75,4.02v1.64c0,2.5-1.4,4.03-3.75,4.03s-3.76-1.53-3.76-4.03v-1.64ZM189.04,38.78c0,1.87.68,3.08,2.52,3.08s2.5-1.21,2.5-3.08v-1.37c0-1.84-.7-3.04-2.5-3.04s-2.52,1.21-2.52,3.04v1.37Z"></path><path class="cls-5" d="M197.45,33.5h.97l.16,1.35c.58-.83,1.51-1.58,2.47-1.58.29,0,.58.04.86.11l-.18,1.08c-.23-.05-.47-.07-.7-.07-.79,0-1.76.85-2.36,1.67v6.66h-1.22v-9.22Z"></path><path class="cls-5" d="M203.62,33.5h.97l.14.97c.72-.63,1.66-1.21,2.65-1.21,1.31,0,2.18.5,2.63,1.35.83-.7,1.85-1.35,2.95-1.35,2.04,0,3.04,1.24,3.04,3.1v6c0,.22-.14.36-.36.36h-.86v-6.05c0-1.48-.47-2.3-1.98-2.3-.86,0-1.75.54-2.47,1.17.05.27.09.54.09.85v6.34h-1.22v-6.05c0-1.48-.47-2.3-1.98-2.3-.9,0-1.71.59-2.38,1.17v7.18h-1.22v-9.22h0Z"></path><path class="cls-5" d="M223.64,41.79c-.76.68-1.73,1.17-2.83,1.17-1.84,0-2.93-1.1-2.93-2.68,0-1.91,1.6-2.66,3.94-2.66h1.69v-.88c0-1.57-.58-2.36-2.21-2.36-.88,0-1.64.16-2.5.43l-.27-1.06c.94-.29,1.8-.47,2.77-.47,2.34,0,3.44,1.33,3.44,3.22v6.23h-.95l-.14-.94h-.01ZM223.51,38.62h-1.62c-1.66,0-2.75.38-2.75,1.66,0,.94.58,1.58,1.8,1.58.94,0,1.87-.43,2.58-1.1v-2.14h0Z"></path><path class="cls-5" d="M227.55,34.48l-1.51-.11v-.86h1.51v-3.03h1.22v3.03h2.27v.97h-2.27v5.62c0,1.33.67,1.76,1.51,1.76.41,0,.83-.05,1.22-.14l.18,1.06c-.47.13-.95.18-1.44.18-1.62,0-2.7-.99-2.7-2.7v-5.78h.01Z"></path><path class="cls-5" d="M233.4,30.91c0-.45.34-.77.79-.77s.83.32.83.77-.36.83-.83.83-.79-.38-.79-.83ZM233.58,33.5h1.22v8.86c0,.22-.13.36-.36.36h-.86v-9.22h0Z"></path><path class="cls-5" d="M237.14,37.32c0-2.45,1.3-4.05,3.67-4.05.97,0,1.89.18,2.85.47l-.29,1.04c-.79-.25-1.64-.41-2.52-.41-1.85,0-2.47,1.28-2.47,3.08v1.28c0,1.84.61,3.13,2.47,3.13.92,0,1.67-.16,2.52-.43l.29,1.06c-.96.29-1.87.47-2.85.47-2.38,0-3.67-1.64-3.67-4.09v-1.55h0Z"></path><path class="cls-5" d="M245.78,41.37c.79.27,1.58.49,2.41.49,1.31,0,1.87-.61,1.87-1.55,0-1.98-4.36-1.55-4.36-4.5,0-1.58,1.26-2.54,3.03-2.54.76,0,1.48.13,2.21.4l-.29,1.03c-.63-.2-1.26-.32-1.91-.32-1.15,0-1.76.54-1.76,1.44,0,1.87,4.36,1.58,4.36,4.5,0,1.62-1.22,2.65-3.15,2.65-.92,0-1.78-.2-2.67-.49l.25-1.1h0Z"></path><path class="cls-5" d="M105.29,50.27c0-1.87,1.12-3.12,3.49-3.12h3.24v1.12h-3.24c-1.75,0-2.25.83-2.25,2.03v2.41h4.95v1.12h-4.95v2.74c0,1.22.5,2.04,2.25,2.04h3.31v.76c0,.22-.14.36-.36.36h-2.95c-2.36,0-3.49-1.24-3.49-3.1v-6.36Z"></path><path class="cls-5" d="M114.38,50.5h.97l.14.97c.92-.74,1.84-1.21,2.85-1.21,2.03,0,3.04,1.24,3.04,3.1v6c0,.22-.14.36-.36.36h-.86v-6.05c0-1.48-.47-2.3-1.98-2.3-.94,0-1.71.5-2.58,1.15v7.2h-1.22v-9.22h0Z"></path><path class="cls-5" d="M125.18,62.26h2.59c1.13,0,1.73-.74,1.73-1.8v-1.76c-.88.68-1.69,1.03-2.66,1.03-2.07,0-3.35-1.37-3.35-3.67v-2.11c0-2.3,1.26-3.67,3.35-3.67.99,0,1.85.45,2.79,1.21l.13-.97h.97v9.94c0,1.8-1.03,2.9-2.95,2.9h-2.38l-.22-1.08v-.02ZM124.73,55.76c0,1.93.68,2.86,2.25,2.86.94,0,1.69-.45,2.52-1.04v-5.04c-.72-.58-1.6-1.17-2.52-1.17-1.57,0-2.25.94-2.25,2.86v1.53h0Z"></path><path class="cls-5" d="M133.26,47.91c0-.45.34-.77.79-.77s.83.32.83.77-.36.83-.83.83-.79-.38-.79-.83ZM133.44,50.5h1.22v8.86c0,.22-.13.36-.36.36h-.86v-9.22h0Z"></path><path class="cls-5" d="M137.35,50.5h.97l.14.97c.92-.74,1.84-1.21,2.84-1.21,2.04,0,3.04,1.24,3.04,3.1v6c0,.22-.14.36-.36.36h-.86v-6.05c0-1.48-.47-2.3-1.98-2.3-.94,0-1.71.5-2.57,1.15v7.2h-1.22v-9.22h0Z"></path><path class="cls-5" d="M146.43,53.96c0-1.94,1.33-3.69,3.6-3.69s3.6,1.82,3.6,3.69v1.01c0,.2-.16.36-.34.36h-5.64v.95c0,1.13.59,2.58,2.48,2.58.97,0,1.85-.22,2.81-.49l.27,1.04c-1.04.32-2.02.54-3.08.54-2.43,0-3.71-1.78-3.71-3.67v-2.32h0ZM152.41,54.36v-.45c0-1.17-.65-2.54-2.38-2.54s-2.38,1.35-2.38,2.54v.45h4.76Z"></path><path class="cls-5" d="M155.41,53.96c0-1.94,1.33-3.69,3.6-3.69s3.6,1.82,3.6,3.69v1.01c0,.2-.16.36-.34.36h-5.64v.95c0,1.13.59,2.58,2.49,2.58.97,0,1.85-.22,2.81-.49l.27,1.04c-1.04.32-2.02.54-3.08.54-2.43,0-3.71-1.78-3.71-3.67v-2.32ZM161.39,54.36v-.45c0-1.17-.65-2.54-2.38-2.54s-2.38,1.35-2.38,2.54v.45h4.76Z"></path><path class="cls-5" d="M164.84,50.5h.97l.16,1.35c.58-.83,1.51-1.58,2.47-1.58.29,0,.58.04.86.11l-.18,1.08c-.23-.05-.47-.07-.7-.07-.79,0-1.76.85-2.36,1.67v6.66h-1.22v-9.22Z"></path><path class="cls-5" d="M171.08,47.91c0-.45.34-.77.79-.77s.83.32.83.77-.36.83-.83.83-.79-.38-.79-.83ZM171.26,50.5h1.22v8.86c0,.22-.13.36-.36.36h-.86v-9.22h0Z"></path><path class="cls-5" d="M175.17,50.5h.97l.14.97c.92-.74,1.84-1.21,2.85-1.21,2.03,0,3.04,1.24,3.04,3.1v6c0,.22-.14.36-.36.36h-.86v-6.05c0-1.48-.47-2.3-1.98-2.3-.94,0-1.71.5-2.58,1.15v7.2h-1.22v-9.22h0Z"></path><path class="cls-5" d="M185.97,62.26h2.59c1.13,0,1.73-.74,1.73-1.8v-1.76c-.88.68-1.69,1.03-2.67,1.03-2.07,0-3.35-1.37-3.35-3.67v-2.11c0-2.3,1.26-3.67,3.35-3.67.99,0,1.85.45,2.79,1.21l.13-.97h.97v9.94c0,1.8-1.03,2.9-2.95,2.9h-2.38l-.22-1.08v-.02ZM185.52,55.76c0,1.93.68,2.86,2.25,2.86.94,0,1.69-.45,2.52-1.04v-5.04c-.72-.58-1.6-1.17-2.52-1.17-1.57,0-2.25.94-2.25,2.86v1.53h0Z"></path></g><g><path class="cls-2" d="M30.21,48.46L16.74,1.94,0,59.72h22.44c2.67,0,5.02-1.77,5.76-4.33l2.01-6.93h0Z"></path><path class="cls-4" d="M47.94,11.26l-13.47,46.52L17.73,0h22.44c2.67,0,5.02,1.77,5.76,4.33l2.01,6.93h0Z"></path><path class="cls-3" d="M65.68,48.46L52.21,1.94l-16.74,57.78h22.44c2.67,0,5.02-1.77,5.76-4.33l2.01-6.93h0Z"></path><polygon class="cls-6" points="21.33 48.46 30.21 48.46 16.73 1.94 21.33 48.46"></polygon><polygon class="cls-7" points="56.8 48.46 65.68 48.46 52.2 1.94 56.8 48.46"></polygon><path class="cls-1" d="M81.41,4.33C80.67,1.77,78.32,0,75.65,0h-22.44l17.3,59.72h26.95L81.42,4.33h0Z"></path></g></g></g></svg>
